<?xml version="1.0" encoding="UTF-8" standalone="no"?>
<!-- Created with Inkscape (http://www.inkscape.org/) -->

<svg
   width="87mm"
   height="87mm"
   viewBox="0 0 87 87"
   version="1.1"
   id="svg1"
   inkscape:export-filename="bittikartta3.svg"
   inkscape:export-xdpi="96"
   inkscape:export-ydpi="96"
   inkscape:version="1.3.2 (091e20e, 2023-11-25, custom)"
   sodipodi:docname="bittikartta2.svg"
   xmlns:inkscape="http://www.inkscape.org/namespaces/inkscape"
   xmlns:sodipodi="http://sodipodi.sourceforge.net/DTD/sodipodi-0.dtd"
   xmlns="http://www.w3.org/2000/svg"
   xmlns:svg="http://www.w3.org/2000/svg">
  <sodipodi:namedview
     id="namedview1"
     pagecolor="#ffffff"
     bordercolor="#000000"
     borderopacity="0.25"
     inkscape:showpageshadow="2"
     inkscape:pageopacity="0.0"
     inkscape:pagecheckerboard="0"
     inkscape:deskcolor="#d1d1d1"
     inkscape:document-units="mm"
     inkscape:zoom="2.955623"
     inkscape:cx="88.475424"
     inkscape:cy="162.23314"
     inkscape:window-width="2560"
     inkscape:window-height="1369"
     inkscape:window-x="-8"
     inkscape:window-y="-8"
     inkscape:window-maximized="1"
     inkscape:current-layer="svg1" />
  <defs
     id="defs1" />
  <g
     id="g2054"
     transform="translate(-0.89518644)">
    <path
       d="M 44.1982,0.626751 C 33.0094,0.626618 22.2787,5.15833 14.3669,13.225 6.45515,21.2916 2.01033,32.2323 2.0103,43.6404 c 3e-5,11.408 4.44485,22.3487 12.3566,30.4153 7.9118,8.0667 18.6425,12.5984 29.8313,12.5983 C 67.4976,86.6539 86.3855,67.3961 86.3856,43.6404 86.3855,19.8846 67.4976,0.626819 44.1982,0.626751 Z m 0,2.053199 c 10.6547,-3e-5 20.8731,4.31543 28.4071,11.99695 7.534,7.6816 11.7665,18.1001 11.7665,28.9635 0,10.8633 -4.2325,21.2818 -11.7665,28.9634 -7.534,7.6815 -17.7524,11.997 -28.4071,11.997 -10.6547,0 -20.873,-4.3155 -28.407,-11.997 C 8.2572,64.9222 4.02464,54.5037 4.02467,43.6404 4.02464,32.777 8.2572,22.3585 15.7912,14.6769 23.3252,6.99538 33.5435,2.67992 44.1982,2.67995 Z"
       style="fill:#f7950d;stroke-width:0.316345"
       id="path2037" />
    <path
       d="M 44.1982,2.9998 C 33.6266,2.99968 23.488,7.28138 16.0127,14.903 8.53741,22.5246 4.33781,32.8617 4.33778,43.6404 4.33781,54.419 8.53741,64.7561 16.0127,72.3777 23.488,79.9993 33.6266,84.281 44.1982,84.2809 66.2122,84.2808 84.058,66.0855 84.0581,43.6404 84.058,21.1952 66.2122,2.99987 44.1982,2.9998 Z m 0,1.93993 c 10.0669,-3e-5 19.7215,4.07734 26.8398,11.33517 7.1184,7.2577 11.1174,17.1014 11.1174,27.3655 0,10.264 -3.999,20.1077 -11.1174,27.3655 C 63.9197,78.2636 54.2651,82.341 44.1982,82.341 34.1313,82.341 24.4768,78.2636 17.3584,71.0059 10.24,63.7481 6.241,53.9044 6.24102,43.6404 6.241,33.3763 10.24,23.5326 17.3584,16.2749 24.4768,9.01707 34.1313,4.9397 44.1982,4.93973 Z"
       style="fill:#f7950d;stroke-width:0.316345"
       id="path2038" />
    <path
       d="M 44.1982,5.37286 C 34.2439,5.37274 24.6973,9.40443 17.6585,16.581 10.6197,23.7575 6.6653,33.4911 6.66527,43.6404 6.6653,53.7896 10.6197,63.5232 17.6585,70.6997 24.6973,77.8763 34.2439,81.908 44.1982,81.9079 64.9267,81.9078 81.7305,64.7749 81.7306,43.6404 81.7305,22.5058 64.9267,5.37292 44.1982,5.37286 Z m 0,1.82665 c 9.4791,-3e-5 18.5699,3.83929 25.2726,10.67329 6.7027,6.8339 10.4683,16.1028 10.4682,25.7676 1e-4,9.6647 -3.7655,18.9336 -10.4682,25.7676 -6.7027,6.8339 -15.7935,10.6732 -25.2726,10.6732 -9.4791,0 -18.5699,-3.8393 -25.2726,-10.6733 C 12.2229,62.574 8.45735,53.3051 8.45737,43.6404 8.45735,33.9756 12.2229,24.7067 18.9256,17.8728 25.6283,11.0388 34.7191,7.19948 44.1982,7.19951 Z"
       style="fill:#f7950d;stroke-width:0.316345"
       id="path2039" />
    <path
       d="M 44.1982,7.74591 C 34.8612,7.7458 25.9066,11.5275 19.3042,18.259 12.7019,24.9905 8.99278,34.1205 8.99275,43.6404 c 3e-5,9.5198 3.70915,18.6498 10.31145,25.3813 6.6024,6.7315 15.557,10.5132 24.894,10.5131 19.4431,-1e-4 35.2049,-16.0705 35.2049,-35.8944 0,-19.824 -15.7618,-35.89443 -35.2049,-35.89449 z m 0,1.71338 c 8.8912,-3e-5 17.4183,3.60121 23.7054,10.01141 6.287,6.4102 9.8191,15.1043 9.819,24.1697 1e-4,9.0653 -3.532,17.7594 -9.819,24.1696 -6.2871,6.4102 -14.8142,10.0114 -23.7054,10.0114 -8.8913,0 -17.4183,-3.6012 -23.7054,-10.0114 -6.2871,-6.4102 -9.8191,-15.1043 -9.8191,-24.1696 0,-9.0654 3.532,-17.7595 9.8191,-24.1697 C 26.7799,13.0605 35.3069,9.45926 44.1982,9.45929 Z"
       style="fill:#f7950d;stroke-width:0.316345"
       id="path2040" />
    <path
       d="m 44.1982,10.119 c -8.7197,-10e-5 -17.0824,3.5315 -23.2482,9.818 -6.1658,6.2865 -9.6297,14.8129 -9.6298,23.7034 10e-5,8.8905 3.464,17.4168 9.6298,23.7033 6.1658,6.2865 14.5285,9.8181 23.2482,9.818 18.1577,0 32.8774,-15.008 32.8774,-33.5213 0,-18.5134 -14.7197,-33.5214 -32.8774,-33.5214 z m 0,1.6001 c 8.3034,-10e-5 16.2667,3.3631 22.1382,9.3495 5.8714,5.9864 9.1699,14.1057 9.1699,22.5718 0,8.466 -3.2985,16.5853 -9.1699,22.5717 -5.8715,5.9864 -13.8348,9.3496 -22.1382,9.3495 -8.3035,1e-4 -16.2668,-3.3631 -22.1382,-9.3495 -5.8714,-5.9864 -9.1699,-14.1057 -9.1699,-22.5717 0,-8.4661 3.2985,-16.5854 9.1699,-22.5718 5.8714,-5.9864 13.8347,-9.3496 22.1382,-9.3495 z"
       style="fill:#f7950d;stroke-width:0.316345"
       id="path2041" />
    <path
       d="m 44.1982,12.492 c -8.1025,-1e-4 -15.8731,3.2816 -21.6024,9.123 -5.7293,5.8415 -8.9481,13.7642 -8.9481,22.0254 0,8.2611 3.2188,16.1838 8.9481,22.0253 5.7293,5.8414 13.4999,9.1231 21.6024,9.123 16.8722,-1e-4 30.5499,-13.9456 30.5499,-31.1483 0,-17.2028 -13.6777,-31.1483 -30.5499,-31.1484 z m 0,1.4868 c 7.7156,0 15.1152,3.1251 20.5709,8.6877 5.4558,5.5626 8.5208,13.1071 8.5208,20.9739 0,7.8667 -3.065,15.4112 -8.5208,20.9738 -5.4557,5.5626 -12.8553,8.6877 -20.5709,8.6877 -7.7157,0 -15.1153,-3.1251 -20.571,-8.6877 -5.4558,-5.5626 -8.5208,-13.1071 -8.5208,-20.9738 0,-7.8668 3.065,-15.4113 8.5208,-20.9739 5.4557,-5.5626 12.8553,-8.6877 20.571,-8.6877 z"
       style="fill:#f7950d;stroke-width:0.316345"
       id="path2042" />
    <path
       d="m 44.1981,14.8651 c -7.4851,-10e-5 -14.6637,3.0315 -19.9565,8.4279 -5.2929,5.3965 -8.2664,12.7156 -8.2664,20.3474 0,7.6317 2.9735,14.9509 8.2664,20.3473 5.2928,5.3964 12.4714,8.428 19.9565,8.4279 15.5869,0 28.2225,-12.8831 28.2226,-28.7752 C 72.4206,27.7482 59.785,14.8651 44.1981,14.8651 Z m 0,1.3735 c 7.1278,0 13.9637,2.887 19.0038,8.0258 5.0401,5.1388 7.8716,12.1086 7.8716,19.376 0,7.2674 -2.8315,14.2371 -7.8716,19.3759 -5.0401,5.1389 -11.876,8.0258 -19.0038,8.0258 -7.1278,0 -13.9636,-2.8869 -19.0037,-8.0258 -5.0401,-5.1388 -7.8716,-12.1085 -7.8716,-19.3759 0,-7.2674 2.8315,-14.2372 7.8716,-19.376 5.0401,-5.1388 11.8759,-8.0258 19.0037,-8.0258 z"
       style="fill:#f7950d;stroke-width:0.316345"
       id="path2043" />
    <path
       d="m 44.1981,17.2381 c -6.8678,-10e-5 -13.4544,2.7816 -18.3108,7.7329 -4.8563,4.9514 -7.5846,11.667 -7.5846,18.6694 0,7.0023 2.7283,13.7179 7.5846,18.6693 4.8564,4.9513 11.443,7.733 18.3108,7.7329 C 58.4995,70.0425 70.0931,58.2219 70.0932,43.6404 70.0931,29.0588 58.4995,17.2382 44.1981,17.2381 Z m 0,1.2603 c 6.54,0 12.8121,2.6489 17.4366,7.3639 4.6244,4.715 7.2224,11.11 7.2224,17.7781 0,6.668 -2.598,13.063 -7.2224,17.778 -4.6245,4.7151 -10.8966,7.3639 -17.4366,7.3639 -6.54,0 -12.8121,-2.6488 -17.4365,-7.3639 -4.6245,-4.715 -7.2225,-11.11 -7.2225,-17.778 0,-6.6681 2.598,-13.0631 7.2225,-17.7781 4.6244,-4.715 10.8965,-7.3639 17.4365,-7.3639 z"
       style="fill:#f7950d;stroke-width:0.316345"
       id="path2044" />
    <path
       d="m 44.1981,19.6112 c -6.2506,-10e-5 -12.2451,2.5315 -16.665,7.0379 -4.4198,4.5063 -6.9029,10.6183 -6.9029,16.9913 0,6.3729 2.4831,12.4849 6.9029,16.9913 4.4199,4.5063 10.4144,7.0379 16.665,7.0378 13.016,0 23.5676,-10.7582 23.5676,-24.0291 C 67.7656,30.3694 57.2141,19.6112 44.1981,19.6112 Z m 0,1.147 c 5.9522,0 11.6605,2.4108 15.8693,6.702 4.2089,4.2912 6.5733,10.1114 6.5733,16.1802 0,6.0687 -2.3644,11.8889 -6.5733,16.1801 -4.2088,4.2913 -9.9171,6.702 -15.8693,6.702 -5.9522,0 -11.6605,-2.4107 -15.8693,-6.702 -4.2089,-4.2912 -6.5733,-10.1114 -6.5733,-16.1801 0,-6.0688 2.3645,-11.889 6.5733,-16.1802 4.2088,-4.2912 9.9171,-6.702 15.8693,-6.702 z"
       style="fill:#f7950d;stroke-width:0.316345"
       id="path2045" />
    <path
       d="m 44.1981,21.9842 c -5.6333,0 -11.0359,2.2816 -15.0192,6.3429 -3.9834,4.0613 -6.2212,9.5696 -6.2212,15.3133 0,5.7436 2.2378,11.2519 6.2212,15.3132 3.9833,4.0614 9.3859,6.3429 15.0192,6.3429 11.7306,-10e-5 21.2401,-9.6958 21.2401,-21.6561 0,-11.9604 -9.5095,-21.6561 -21.2401,-21.6562 z m 0,1.0338 c 5.3643,-10e-5 10.509,2.1727 14.3021,6.0401 3.7932,3.8675 5.9241,9.1129 5.9241,14.5823 0,5.4694 -2.1309,10.7148 -5.9241,14.5822 -3.7931,3.8675 -8.9378,6.0402 -14.3021,6.0402 -5.3644,0 -10.509,-2.1727 -14.3021,-6.0402 -3.7932,-3.8674 -5.9242,-9.1128 -5.9242,-14.5822 0,-5.4694 2.131,-10.7148 5.9242,-14.5823 3.7931,-3.8674 8.9377,-6.0402 14.3021,-6.0401 z"
       style="fill:#f7950d;stroke-width:0.316345"
       id="path2046" />
    <path
       d="m 44.1981,24.3573 c -5.016,-10e-5 -9.8266,2.0315 -13.3735,5.6478 -3.5468,3.6163 -5.5394,8.521 -5.5395,13.6353 10e-5,5.1142 1.9927,10.0189 5.5395,13.6352 3.5469,3.6163 8.3575,5.6479 13.3735,5.6478 10.4451,0 18.9126,-8.6333 18.9126,-19.283 0,-10.6498 -8.4675,-19.2831 -18.9126,-19.2831 z m 0,0.9204 c 4.7765,0 9.3574,1.9346 12.7349,5.3783 3.3775,3.4437 5.275,8.1143 5.2749,12.9844 10e-5,4.87 -1.8974,9.5406 -5.2749,12.9843 -3.3775,3.4437 -7.9584,5.3783 -12.7349,5.3783 -4.7766,0 -9.3574,-1.9346 -12.735,-5.3783 -3.3775,-3.4437 -5.2749,-8.1143 -5.2749,-12.9843 0,-4.8701 1.8974,-9.5407 5.2749,-12.9844 3.3776,-3.4437 7.9584,-5.3783 12.735,-5.3783 z"
       style="fill:#f7950d;stroke-width:0.316345"
       id="path2047" />
    <path
       d="m 44.1981,26.7303 c -4.3988,0 -8.6173,1.7815 -11.7277,4.9528 -3.1104,3.1712 -4.8578,7.4724 -4.8578,11.9573 0,4.4848 1.7474,8.786 4.8578,11.9572 3.1104,3.1713 7.3289,4.9528 11.7277,4.9528 9.1597,-1e-4 16.5851,-7.5709 16.5851,-16.91 0,-9.3392 -7.4254,-16.91 -16.5851,-16.9101 z m 0,0.8072 c 4.1887,0 8.2058,1.6965 11.1677,4.7164 2.9618,3.0199 4.6258,7.1157 4.6258,11.3865 0,4.2707 -1.664,8.3665 -4.6258,11.3864 -2.9619,3.0199 -6.979,4.7164 -11.1677,4.7164 -4.1888,0 -8.2059,-1.6965 -11.1678,-4.7164 -2.9618,-3.0199 -4.6258,-7.1157 -4.6258,-11.3864 0,-4.2708 1.664,-8.3666 4.6258,-11.3865 2.9619,-3.0199 6.979,-4.7164 11.1678,-4.7164 z"
       style="fill:#f7950d;stroke-width:0.316345"
       id="path2048" />
    <path
       d="m 44.198,29.1034 c -3.7814,-10e-5 -7.4079,1.5315 -10.0818,4.2577 -2.6739,2.7262 -4.1761,6.4238 -4.1761,10.2793 0,3.8554 1.5022,7.553 4.1761,10.2792 2.6739,2.7262 6.3004,4.2578 10.0818,4.2577 7.8743,0 14.2577,-6.5084 14.2577,-14.5369 0,-8.0286 -6.3834,-14.537 -14.2577,-14.537 z m 0,0.6939 c 3.6009,0 7.0543,1.4584 9.6005,4.0545 2.5462,2.5961 3.9767,6.1171 3.9767,9.7886 0,3.6714 -1.4305,7.1924 -3.9767,9.7885 -2.5462,2.5961 -5.9996,4.0545 -9.6005,4.0545 -3.6009,0 -7.0543,-1.4584 -9.6005,-4.0545 -2.5462,-2.5961 -3.9766,-6.1171 -3.9766,-9.7885 0,-3.6715 1.4304,-7.1925 3.9766,-9.7886 2.5462,-2.5961 5.9997,-4.0545 9.6005,-4.0545 z"
       style="fill:#f7950d;stroke-width:0.316345"
       id="path2049" />
    <path
       d="m 44.198,31.4764 c -3.1641,0 -6.1987,1.2815 -8.436,3.5627 -2.2374,2.2812 -3.4944,5.3752 -3.4944,8.6013 0,3.2261 1.257,6.32 3.4944,8.6012 2.2373,2.2812 5.2719,3.5627 8.436,3.5627 6.5889,-10e-5 11.9302,-5.446 11.9303,-12.1639 -1e-4,-6.718 -5.3414,-12.1639 -11.9303,-12.164 z m 0,0.5807 c 3.0131,0 5.9027,1.2203 8.0333,3.3926 2.1306,2.1723 3.3275,5.1186 3.3275,8.1907 0,3.072 -1.1969,6.0183 -3.3275,8.1906 -2.1306,2.1723 -5.0202,3.3926 -8.0333,3.3926 -3.013,0 -5.9027,-1.2203 -8.0333,-3.3926 -2.1305,-2.1723 -3.3275,-5.1186 -3.3275,-8.1906 0,-3.0721 1.197,-6.0184 3.3275,-8.1907 2.1306,-2.1723 5.0203,-3.3926 8.0333,-3.3926 z"
       style="fill:#f7950d;stroke-width:0.316345"
       id="path2050" />
    <path
       d="m 44.198,33.8495 c -2.5468,0 -4.9894,1.0315 -6.7903,2.8676 -1.8009,1.8362 -2.8126,4.3265 -2.8126,6.9233 0,2.5967 1.0117,5.087 2.8126,6.9232 1.8009,1.8361 4.2435,2.8676 6.7903,2.8676 5.3035,0 9.6028,-4.3835 9.6028,-9.7908 0,-5.4074 -4.2993,-9.7909 -9.6028,-9.7909 z m 0,0.4673 c 2.4252,0 4.7512,0.9823 6.4661,2.7308 1.7149,1.7485 2.6783,4.12 2.6783,6.5928 0,2.4727 -0.9634,4.8442 -2.6783,6.5927 -1.7149,1.7485 -4.0409,2.7308 -6.4661,2.7308 -2.4252,0 -4.7512,-0.9823 -6.4661,-2.7308 -1.7149,-1.7485 -2.6783,-4.12 -2.6783,-6.5927 0,-2.4728 0.9634,-4.8443 2.6783,-6.5928 1.7149,-1.7485 4.0409,-2.7308 6.4661,-2.7308 z"
       style="fill:#f7950d;stroke-width:0.316345"
       id="path2051" />
    <path
       d="m 44.198,36.2225 c -1.9296,0 -3.7801,0.7815 -5.1445,2.1726 -1.3644,1.3912 -2.1309,3.2779 -2.1309,5.2453 0,1.9673 0.7665,3.8541 2.1309,5.2452 1.3644,1.3911 3.2149,2.1726 5.1445,2.1726 4.018,-10e-5 7.2753,-3.3211 7.2753,-7.4178 0,-4.0968 -3.2573,-7.4178 -7.2753,-7.4179 z m 0,0.3541 c 1.8374,0 3.5996,0.7442 4.8988,2.0689 1.2993,1.3247 2.0292,3.1214 2.0292,4.9949 0,1.8734 -0.7299,3.6701 -2.0292,4.9948 -1.2992,1.3247 -3.0614,2.0689 -4.8988,2.0689 -1.8374,0 -3.5996,-0.7442 -4.8989,-2.0689 -1.2992,-1.3247 -2.0292,-3.1214 -2.0292,-4.9948 0,-1.8735 0.73,-3.6702 2.0292,-4.9949 1.2993,-1.3247 3.0615,-2.0689 4.8989,-2.0689 z"
       style="fill:#f7950d;stroke-width:0.316345"
       id="path2052" />
    <path
       d="m 44.198,38.5956 c -1.3123,0 -2.5708,0.5315 -3.4987,1.4776 -0.9279,0.946 -1.4492,2.2292 -1.4492,3.5672 0,1.3379 0.5213,2.6211 1.4492,3.5672 0.9279,0.946 2.1864,1.4775 3.4987,1.4775 2.7326,0 4.9478,-2.2586 4.9478,-5.0447 0,-2.7862 -2.2152,-5.0448 -4.9478,-5.0448 z m 0,0.2408 c 1.2496,0 2.448,0.5061 3.3316,1.407 0.8836,0.901 1.38,2.1229 1.38,3.397 0,1.274 -0.4964,2.4959 -1.38,3.3969 -0.8836,0.9009 -2.082,1.407 -3.3316,1.407 -1.2496,0 -2.4481,-0.5061 -3.3317,-1.407 -0.8836,-0.901 -1.38,-2.1229 -1.38,-3.3969 0,-1.2741 0.4964,-2.496 1.38,-3.397 0.8836,-0.9009 2.0821,-1.407 3.3317,-1.407 z"
       style="fill:#f7950d;stroke-width:0.316345"
       id="path2053" />
    <path
       d="m 44.1979,40.9687 c -0.6949,-10e-5 -1.3614,0.2814 -1.8529,0.7825 -0.4914,0.501 -0.7675,1.1806 -0.7675,1.8892 0,0.7085 0.2761,1.3881 0.7675,1.8891 0.4915,0.5011 1.158,0.7826 1.853,0.7826 1.4471,-1e-4 2.6203,-1.1962 2.6203,-2.6717 0,-1.4756 -1.1732,-2.6717 -2.6203,-2.6717 z m 0,0.1275 c 0.6618,0 1.2965,0.268 1.7645,0.7452 0.468,0.4771 0.7308,1.1242 0.7308,1.799 0,0.6747 -0.2628,1.3218 -0.7308,1.799 -0.468,0.4771 -1.1027,0.7451 -1.7645,0.7451 -0.6617,0 -1.2964,-0.268 -1.7644,-0.7451 -0.468,-0.4772 -0.7308,-1.1243 -0.7308,-1.799 0,-0.6748 0.2628,-1.3219 0.7308,-1.799 0.468,-0.4772 1.1027,-0.7452 1.7644,-0.7452 z"
       style="fill:#f7950d;stroke-width:0.316345"
       id="path2054" />
  </g>
</svg>
