<?xml version="1.0" encoding="UTF-8" standalone="no"?>
<!-- Created with Inkscape (http://www.inkscape.org/) -->

<svg
   width="87mm"
   height="87mm"
   viewBox="0 0 87 87"
   version="1.1"
   id="svg1"
   inkscape:export-filename="bittikartta2.svg"
   inkscape:export-xdpi="96"
   inkscape:export-ydpi="96"
   inkscape:version="1.3.2 (091e20e, 2023-11-25, custom)"
   sodipodi:docname="bittikartta2.svg"
   xmlns:inkscape="http://www.inkscape.org/namespaces/inkscape"
   xmlns:sodipodi="http://sodipodi.sourceforge.net/DTD/sodipodi-0.dtd"
   xmlns="http://www.w3.org/2000/svg"
   xmlns:svg="http://www.w3.org/2000/svg">
  <sodipodi:namedview
     id="namedview1"
     pagecolor="#ffffff"
     bordercolor="#000000"
     borderopacity="0.25"
     inkscape:showpageshadow="2"
     inkscape:pageopacity="0.0"
     inkscape:pagecheckerboard="0"
     inkscape:deskcolor="#d1d1d1"
     inkscape:document-units="mm"
     inkscape:zoom="2.0899411"
     inkscape:cx="77.274906"
     inkscape:cy="141.87003"
     inkscape:window-width="2560"
     inkscape:window-height="1369"
     inkscape:window-x="-8"
     inkscape:window-y="-8"
     inkscape:window-maximized="1"
     inkscape:current-layer="svg1" />
  <defs
     id="defs1">
    <inkscape:path-effect
       effect="bend_path"
       id="path-effect1739"
       is_visible="true"
       lpeversion="1"
       bendpath="M 0.11739275,-2.4874556 86.310699,80.62876"
       prop_scale="1"
       scale_y_rel="false"
       vertical="false"
       hide_knot="false"
       bendpath-nodetypes="cc" />
  </defs>
  <g
     id="g1739"
     transform="matrix(0.9960244,0,0,1.0296404,0.49200682,3.4636408)"
     inkscape:path-effect="#path-effect1739">
    <path
       d="m 108.81964,51.899682 0.2088,0.201344 2.36972,2.285128 -49.95939,51.808966 -4.52e-4,-4.4e-4 -0.207553,-0.20014 -2.370519,-2.28589 z"
       style="fill:#f7950d;stroke-width:0.944142"
       id="path1711"
       inkscape:original-d="m 80.7281,5.80892 h 0.1846 2.0951 V 77.7819 h -4e-4 -0.1835 -2.0958 z" />
    <path
       d="m 105.81759,49.036367 0.20857,0.201126 c 0.59201,0.570873 2.2672,2.222354 2.23476,2.255992 l -49.908904,51.756615 -5.65e-4,-5.5e-4 -0.207328,-0.19992 c -0.591329,-0.57022 -2.267866,-2.22303 -2.23545,-2.25664 z"
       style="fill:#f7950d;stroke-width:0.944142"
       id="path1712"
       inkscape:original-d="m 78.0879,5.83164 h 0.1844 c 0.5234,0 2.0204,0.02598 2.0204,0.07271 V 77.8046 h -5e-4 -0.1833 c -0.5228,0 -2.021,-0.026 -2.021,-0.0727 z" />
    <path
       d="m 102.81553,46.17306 0.20846,0.201016 c 0.56995,0.549604 2.16446,2.159355 2.09958,2.226631 l -49.858491,51.704333 -5.65e-4,-5.5e-4 -0.207214,-0.19981 c -0.569386,-0.549063 -2.165101,-2.16005 -2.100199,-2.227355 z"
       style="fill:#f7950d;stroke-width:0.944142"
       id="path1713"
       inkscape:original-d="m 75.4477,5.85437 h 0.1843 c 0.5039,0 1.9455,0.05195 1.9455,0.14541 V 77.8274 h -5e-4 -0.1832 c -0.5034,0 -1.9461,-0.052 -1.9461,-0.1455 z" />
    <path
       d="m 99.813586,43.309861 0.208124,0.200689 c 0.54812,0.528554 2.06181,2.096472 1.96451,2.197379 l -49.808008,51.651977 -5.66e-4,-5.46e-4 -0.206987,-0.199598 c -0.547444,-0.527899 -2.062405,-2.096996 -1.965087,-2.197917 z"
       style="fill:#f7950d;stroke-width:0.944142"
       id="path1714"
       inkscape:original-d="m 72.8076,5.8771 h 0.184 c 0.4846,0 1.8707,0.07793 1.8707,0.21811 V 77.8501 h -5e-4 -0.183 c -0.484,0 -1.8712,-0.0779 -1.8712,-0.2181 z" />
    <path
       d="m 96.811529,40.446554 0.207893,0.200471 c 0.526179,0.507394 1.959187,2.033581 1.829438,2.168134 l -49.757516,51.599615 -5.65e-4,-5.45e-4 -0.206762,-0.199381 C 48.358404,93.708 46.924265,92.180721 47.054,92.046183 Z"
       style="fill:#f7950d;stroke-width:0.944142"
       id="path1715"
       inkscape:original-d="m 70.1674,5.89983 h 0.1838 c 0.4652,0 1.7959,0.1039 1.7959,0.29082 V 77.8728 h -5e-4 -0.1828 c -0.4647,0 -1.7964,-0.1039 -1.7964,-0.2908 z" />
    <path
       d="m 93.809472,37.583246 0.20778,0.200362 c 0.504235,0.486235 1.856435,1.97059 1.694255,2.138773 l -49.70703,51.547261 -4.52e-4,-4.36e-4 -0.206649,-0.199271 c -0.50367,-0.485689 -1.857169,-1.971187 -1.694948,-2.139413 z"
       style="fill:#f7950d;stroke-width:0.944142"
       id="path1716"
       inkscape:original-d="m 67.5272,5.92256 h 0.1837 c 0.4458,0 1.721,0.12988 1.721,0.36352 V 77.8955 h -4e-4 -0.1827 c -0.4453,0 -1.7216,-0.1298 -1.7216,-0.3635 z" />
    <path
       d="m 90.807528,34.720048 0.20744,0.200034 c 0.482293,0.465075 1.753803,1.9077 1.559187,2.109521 L 42.91754,88.524582 42.917088,88.524146 42.710666,88.325093 C 42.228825,87.860454 40.956331,86.416812 41.150969,86.21497 Z"
       style="fill:#f7950d;stroke-width:0.944142"
       id="path1717"
       inkscape:original-d="m 64.8871,5.94529 h 0.1834 c 0.4264,0 1.6462,0.15585 1.6462,0.43622 V 77.9183 h -4e-4 -0.1825 c -0.426,0 -1.6467,-0.1559 -1.6467,-0.4363 z" />
    <path
       d="m 87.805471,31.85674 0.207214,0.199816 c 0.460463,0.444025 1.651164,1.844817 1.424118,2.080269 l -49.60613,51.442626 -4.53e-4,-4.37e-4 -0.206196,-0.198835 C 39.164127,84.9367 37.972273,83.534839 38.199327,83.29938 Z"
       style="fill:#f7950d;stroke-width:0.944142"
       id="path1718"
       inkscape:original-d="m 62.2469,5.96802 h 0.1832 c 0.4071,0 1.5714,0.18183 1.5714,0.50892 V 77.941 h -4e-4 -0.1823 c -0.4066,0 -1.5719,-0.1818 -1.5719,-0.5089 z" />
    <path
       d="m 84.803414,28.993432 0.207101,0.199708 c 0.438406,0.422756 1.548419,1.781817 1.288929,2.050914 l -49.555639,51.390265 -4.52e-4,-4.36e-4 -0.206083,-0.198726 c -0.437954,-0.42232 -1.548985,-1.782363 -1.289515,-2.051439 z"
       style="fill:#f7950d;stroke-width:0.944142"
       id="path1719"
       inkscape:original-d="m 59.6067,5.99075 h 0.1831 c 0.3876,0 1.4965,0.2078 1.4965,0.58163 V 77.9637 h -4e-4 -0.1822 c -0.3872,0 -1.497,-0.2078 -1.497,-0.5816 z" />
    <path
       d="m 81.80147,26.130234 0.206761,0.19938 c 0.416577,0.401705 1.445781,1.718934 1.15386,2.021662 l -49.505222,51.337983 -4.53e-4,-4.36e-4 -0.205857,-0.198508 C 33.034435,79.089046 32.00434,77.77093 32.296295,77.468166 Z"
       style="fill:#f7950d;stroke-width:0.944142"
       id="path1720"
       inkscape:original-d="m 56.9666,6.01348 h 0.1828 c 0.3683,0 1.4217,0.23378 1.4217,0.65433 V 77.9865 h -4e-4 -0.182 c -0.3679,0 -1.4221,-0.2338 -1.4221,-0.6544 z" />
    <path
       d="m 78.799412,23.266926 0.206536,0.199162 c 0.394634,0.380546 1.343149,1.656044 1.018791,1.99241 l -49.454738,51.285629 -4.52e-4,-4.36e-4 -0.205631,-0.19829 c -0.394181,-0.380109 -1.343567,-1.656516 -1.019264,-1.992824 z"
       style="fill:#f7950d;stroke-width:0.944142"
       id="path1721"
       inkscape:original-d="m 54.3264,6.03621 h 0.1826 c 0.3489,0 1.3469,0.25975 1.3469,0.72703 V 78.0092 h -4e-4 -0.1818 c -0.3485,0 -1.3473,-0.2598 -1.3473,-0.727 z" />
    <path
       d="m 75.797355,20.403619 0.206422,0.199053 c 0.372692,0.359386 1.240398,1.593051 0.883603,1.963056 l -49.404246,51.233267 -4.53e-4,-4.36e-4 -0.205404,-0.198071 c -0.372352,-0.359059 -1.240984,-1.593576 -0.884196,-1.963573 z"
       style="fill:#f7950d;stroke-width:0.944142"
       id="path1722"
       inkscape:original-d="m 51.6862,6.05894 h 0.1825 c 0.3295,0 1.272,0.28573 1.272,0.79974 V 78.0319 h -4e-4 -0.1816 c -0.3292,0 -1.2725,-0.2857 -1.2725,-0.7997 z" />
    <path
       d="m 72.795411,17.54042 0.206083,0.198726 c 0.350748,0.338226 1.137766,1.530161 0.748534,1.933804 l -49.353762,51.180914 -4.52e-4,-4.37e-4 -0.205178,-0.197853 c -0.350409,-0.337899 -1.138219,-1.530598 -0.749014,-1.934211 z"
       style="fill:#f7950d;stroke-width:0.944142"
       id="path1723"
       inkscape:original-d="m 49.0461,6.08167 h 0.1822 c 0.3101,0 1.1972,0.3117 1.1972,0.87244 V 78.0546 h -4e-4 -0.1814 c -0.3098,0 -1.1976,-0.3117 -1.1976,-0.8724 z" />
    <path
       d="m 69.793354,14.677112 0.205857,0.198508 c 0.328918,0.317176 1.035127,1.467279 0.613464,1.904552 l -49.303346,51.128632 -4.52e-4,-4.36e-4 -0.204952,-0.197636 C 20.775346,67.393884 20.068359,66.243003 20.49005,65.805701 Z"
       style="fill:#f7950d;stroke-width:0.944142"
       id="path1724"
       inkscape:original-d="m 46.4059,6.1044 h 0.182 c 0.2908,0 1.1224,0.33768 1.1224,0.94514 V 78.0774 h -4e-4 -0.1812 c -0.2905,0 -1.1228,-0.3377 -1.1228,-0.9452 z" />
    <path
       d="m 66.791297,11.813805 0.205743,0.198398 c 0.306863,0.295908 0.932383,1.40428 0.478283,1.875191 L 18.222462,64.963672 18.22201,64.963236 18.017171,64.76571 c -0.306523,-0.29558 -0.93287,-1.40468 -0.478763,-1.875598 z"
       style="fill:#f7950d;stroke-width:0.944142"
       id="path1725"
       inkscape:original-d="m 43.7657,6.12713 h 0.1819 c 0.2713,0 1.0475,0.36365 1.0475,1.01784 V 78.1001 h -4e-4 -0.1811 c -0.271,0 -1.0479,-0.3636 -1.0479,-1.0178 z" />
    <path
       d="m 63.789353,8.9506064 0.205404,0.1980713 c 0.285032,0.2748567 0.829857,1.3415053 0.34332,1.8460543 l -49.202369,51.023917 -5.66e-4,-5.45e-4 -0.204612,-0.197308 c -0.284693,-0.274529 -0.830105,-1.341702 -0.343581,-1.846237 z"
       style="fill:#f7950d;stroke-width:0.944142"
       id="path1726"
       inkscape:original-d="m 41.1256,6.14986 h 0.1816 c 0.252,0 0.9728,0.38963 0.9728,1.09055 V 78.1228 h -5e-4 -0.1809 c -0.2517,0 -0.973,-0.3896 -0.973,-1.0905 z" />
    <path
       d="m 60.787296,6.0872988 0.205178,0.1978532 c 0.263089,0.2536971 0.727225,1.2786149 0.208251,1.8168026 l -49.151954,50.9716344 -5.66e-4,-5.45e-4 -0.204386,-0.19709 c -0.26275,-0.25337 -0.727452,-1.278833 -0.208442,-1.817056 z"
       style="fill:#f7950d;stroke-width:0.944142"
       id="path1727"
       inkscape:original-d="m 38.4854,6.17259 h 0.1814 c 0.2326,0 0.898,0.4156 0.898,1.16325 V 78.1456 h -5e-4 -0.1807 c -0.2323,0 -0.8982,-0.4156 -0.8982,-1.1633 z" />
    <path
       d="m 57.785238,3.2239912 0.205065,0.1977441 c 0.241147,0.2325375 0.624481,1.2156156 0.07307,1.7874414 L 8.9619035,56.128458 8.961338,56.127912 8.7571779,55.931041 C 8.5162577,55.698721 8.1323787,54.715076 8.6838042,54.143236 Z"
       style="fill:#f7950d;stroke-width:0.944142"
       id="path1728"
       inkscape:original-d="m 35.8452,6.19532 h 0.1813 c 0.2132,0 0.8231,0.44157 0.8231,1.23595 V 78.1683 h -5e-4 -0.1805 c -0.213,0 -0.8234,-0.4416 -0.8234,-1.236 z" />
    <path
       d="m 54.783294,0.36079262 0.204726,0.19741693 c 0.219203,0.21137791 0.521842,1.15273255 -0.062,1.75818925 L 5.8750361,53.183326 5.8744706,53.182781 5.6705367,52.986127 c -0.2189772,-0.21116 -0.522103,-1.152915 0.061739,-1.758371 z"
       style="fill:#f7950d;stroke-width:0.944142"
       id="path1729"
       inkscape:original-d="m 33.2051,6.21805 h 0.181 c 0.1938,0 0.7483,0.46755 0.7483,1.30865 V 78.191 h -5e-4 -0.1803 c -0.1936,0 -0.7485,-0.4675 -0.7485,-1.3086 z" />
    <path
       d="m 51.781237,-2.502515 0.204499,0.1971988 c 0.197374,0.1903274 0.419211,1.0898423 -0.197075,1.72894428 L 2.7880993,50.238266 2.7875337,50.237721 2.5838261,50.041285 C 2.3866787,49.851176 2.164445,48.951167 2.7807033,48.312094 Z"
       style="fill:#f7950d;stroke-width:0.944142"
       id="path1730"
       inkscape:original-d="m 30.5649,6.24078 h 0.1808 c 0.1745,0 0.6735,0.49352 0.6735,1.38136 V 78.2138 h -5e-4 -0.1801 c -0.1743,0 -0.6737,-0.4936 -0.6737,-1.3814 z" />
    <path
       d="m 48.77918,-5.3658226 0.204386,0.1970897 c 0.175318,0.1690587 0.316459,1.0268502 -0.332257,1.6995831 l -48.95007714,50.7622838 -5.6554e-4,-5.45e-4 -0.20359453,-0.196326 c -0.1750913,-0.168841 -0.31668493,-1.027069 0.3320592,-1.69983 z"
       style="fill:#f7950d;stroke-width:0.944142"
       id="path1731"
       inkscape:original-d="m 27.9247,6.26351 h 0.1807 c 0.155,0 0.5986,0.5195 0.5986,1.45406 V 78.2365 h -5e-4 -0.18 c -0.1548,0 -0.5988,-0.5195 -0.5988,-1.4541 z" />
    <path
       d="m 45.777243,-8.2290283 0.204047,0.1967625 c 0.153487,0.1480082 0.21382,0.9639672 -0.467334,1.6703381 l -48.8995916,50.7099297 -5.655e-4,-5.45e-4 -0.2033683,-0.196108 c -0.1532614,-0.14779 -0.2139193,-0.964091 0.4672412,-1.670469 z"
       style="fill:#f7950d;stroke-width:0.944142"
       id="path1732"
       inkscape:original-d="m 25.2846,6.28623 h 0.1804 c 0.1357,0 0.5238,0.54548 0.5238,1.52677 v 70.4462 h -5e-4 -0.1798 c -0.1355,0 -0.5239,-0.5455 -0.5239,-1.5268 z" />
    <path
       d="m 42.775186,-11.092336 0.20382,0.196544 c 0.131545,0.126849 0.111182,0.9010846 -0.602409,1.6410936 l -48.8491,50.6575694 -5.655e-4,-5.46e-4 -0.2031421,-0.19589 c -0.1314316,-0.126739 -0.1113362,-0.90115 0.6022407,-1.641144 z"
       style="fill:#f7950d;stroke-width:0.944142"
       id="path1733"
       inkscape:original-d="m 22.6444,6.30896 h 0.1802 c 0.1163,0 0.449,0.57146 0.449,1.59948 V 78.2819 h -5e-4 -0.1796 c -0.1162,0 -0.4491,-0.5714 -0.4491,-1.5994 z" />
    <path
       d="m 39.773128,-13.955644 0.203708,0.196436 c 0.109602,0.105689 0.0084,0.838085 -0.737591,1.611732 l -48.7986848,50.605287 -5.655e-4,-5.45e-4 -0.2029159,-0.195672 c -0.1094886,-0.10558 -0.00861,-0.838354 0.7373789,-1.611965 z"
       style="fill:#f7950d;stroke-width:0.944142"
       id="path1734"
       inkscape:original-d="m 20.0042,6.33169 h 0.1801 c 0.0969,0 0.3741,0.59743 0.3741,1.67218 V 78.3047 h -5e-4 -0.1794 c -0.0968,0 -0.3743,-0.5975 -0.3743,-1.6722 z" />
    <path
       d="m 36.771184,-16.818842 0.203369,0.196108 c 0.08777,0.08464 -0.0942,0.775202 -0.872661,1.58248 l -48.748199,50.552933 -5.66e-4,-5.45e-4 -0.202689,-0.195454 c -0.08766,-0.08453 0.09408,-0.775304 0.872561,-1.582603 z"
       style="fill:#f7950d;stroke-width:0.944142"
       id="path1735"
       inkscape:original-d="m 17.3641,6.35442 h 0.1798 c 0.0776,0 0.2993,0.62341 0.2993,1.74488 v 70.2281 h -5e-4 -0.1792 c -0.0775,0 -0.2994,-0.6234 -0.2994,-1.7449 z" />
    <path
       d="m 33.769127,-19.68215 0.203255,0.195999 c 0.06572,0.06337 -0.196946,0.712203 -1.007842,1.553119 l -48.697715,50.500579 -5.65e-4,-5.45e-4 -0.202464,-0.195236 c -0.06572,-0.06337 0.196735,-0.712435 1.00763,-1.553351 z"
       style="fill:#f7950d;stroke-width:0.944142"
       id="path1736"
       inkscape:original-d="m 14.7239,6.37715 h 0.1797 c 0.0581,0 0.2244,0.64938 0.2244,1.81758 V 78.3501 h -5e-4 -0.179 c -0.0581,0 -0.2246,-0.6494 -0.2246,-1.8176 z" />
    <path
       d="m 30.76707,-22.545457 0.203029,0.195781 c 0.04389,0.04232 -0.299585,0.649319 -1.142918,1.523873 l -48.647292,50.44829 -5.66e-4,-5.45e-4 -0.20235,-0.195126 c -0.04377,-0.04221 0.2995,-0.649458 1.142812,-1.52399 z"
       style="fill:#f7950d;stroke-width:0.944142"
       id="path1737"
       inkscape:original-d="m 12.0837,6.39988 h 0.1795 c 0.0388,0 0.1496,0.67536 0.1496,1.89029 V 78.3729 h -5e-4 -0.1789 c -0.0387,0 -0.1497,-0.6754 -0.1497,-1.8903 z" />
    <path
       d="m 27.765103,-25.408678 0.202735,0.195498 c 0.02192,0.02114 -0.402183,0.586462 -1.277953,1.494654 l -48.596807,50.395936 -5.77e-4,-5.56e-4 -0.202136,-0.194919 c -0.0219,-0.02112 0.40214,-0.586462 1.277938,-1.494683 z"
       style="fill:#f7950d;stroke-width:0.944142"
       id="path1738"
       inkscape:original-d="m 9.44358,6.42261 h 0.17924 c 0.01938,0 0.07483,0.70133 0.07483,1.96299 v 70.01 H 9.69714 9.51843 c -0.01936,0 -0.07485,-0.7013 -0.07485,-1.963 z" />
    <path
       d="m 24.763091,-28.271942 0.202498,0.195269 -1.413056,1.465369 -48.546323,50.343582 -5.77e-4,-5.56e-4 -0.20192,-0.194712 1.413063,-1.465376 z"
       style="fill:#f7950d;stroke-width:0.944142"
       id="path1739"
       inkscape:original-d="M 6.80342,6.44534 H 6.98245 V 8.48103 78.4183 H 6.98194 6.80342 v -2.0357 z" />
  </g>
</svg>
