<?xml version="1.0" encoding="UTF-8" standalone="no"?>
<!-- Created with Inkscape (http://www.inkscape.org/) -->

<svg
   width="87mm"
   height="87mm"
   viewBox="0 0 87 87"
   version="1.1"
   id="svg1"
   inkscape:export-filename="bittikartta.svg"
   inkscape:export-xdpi="96"
   inkscape:export-ydpi="96"
   inkscape:version="1.3.2 (091e20e, 2023-11-25, custom)"
   sodipodi:docname="piirustus.svg"
   xmlns:inkscape="http://www.inkscape.org/namespaces/inkscape"
   xmlns:sodipodi="http://sodipodi.sourceforge.net/DTD/sodipodi-0.dtd"
   xmlns="http://www.w3.org/2000/svg"
   xmlns:svg="http://www.w3.org/2000/svg">
  <sodipodi:namedview
     id="namedview1"
     pagecolor="#ffffff"
     bordercolor="#000000"
     borderopacity="0.25"
     inkscape:showpageshadow="2"
     inkscape:pageopacity="0.0"
     inkscape:pagecheckerboard="0"
     inkscape:deskcolor="#d1d1d1"
     inkscape:document-units="mm"
     inkscape:zoom="2.955623"
     inkscape:cx="148.02294"
     inkscape:cy="171.70661"
     inkscape:window-width="2560"
     inkscape:window-height="1369"
     inkscape:window-x="-8"
     inkscape:window-y="-8"
     inkscape:window-maximized="1"
     inkscape:current-layer="svg1" />
  <defs
     id="defs1">
    <inkscape:path-effect
       effect="envelope"
       id="path-effect1358"
       is_visible="true"
       lpeversion="1"
       yy="true"
       xx="true"
       bendpath1="M 0.53710776,-2.4169994 129.5427,57.345612"
       bendpath2="M 85.2217,2.8646 V 82.6257"
       bendpath3="M 1.70085,82.6257 125.17102,24.562238"
       bendpath4="M 1.4865821,2.9503717 1.70085,82.6257"
       bendpath1-nodetypes="cc"
       bendpath3-nodetypes="cc"
       bendpath4-nodetypes="cc" />
  </defs>
  <g
     id="g1358"
     transform="matrix(0.83557652,0,0,1.0021994,1.7091517,0.71346308)"
     inkscape:path-effect="#path-effect1358">
    <path
       d="M 2.8292321,0.62657049 C 37.386557,8.1374502 99.124506,54.1631 106.98396,31.533204 c 0.0155,-0.04476 0.0309,-0.08978 0.046,-0.135072 -0.18765,-0.12879 -0.37351,-0.255378 -0.5576,-0.379788 0,0 -2.6e-4,7.66e-4 -2.6e-4,7.66e-4 C 98.760214,53.87194 37.223818,8.4844497 2.8782218,1.0747501 2.8105348,1.0601473 2.7429533,1.0456926 2.6754781,1.0313866 2.7256106,0.89655461 2.7768543,0.76161498 2.8292321,0.62657049 Z"
       style="fill:#f7950d;stroke-width:0.15955"
       id="path1321"
       inkscape:original-d="M 3.13316,2.8646 H 83.6302 83.7894 V 3.22267 H 83.7885 3.2918 3.13316 Z" />
    <path
       d="M 1.9590623,3.0291775 C 34.659012,9.0725009 95.627658,51.805681 103.81534,29.416729 c 0.0312,-0.08536 0.0439,-0.131541 0.0404,-0.133701 -0.16721,-0.103211 -0.33278,-0.204336 -0.49673,-0.303395 0,0 -2.7e-4,7.56e-4 -2.7e-4,7.56e-4 C 95.309625,51.542758 34.531154,9.4245183 2.0284225,3.469819 1.9049919,3.4472058 1.8425773,3.4337823 1.8433638,3.4309819 1.8809502,3.2971511 1.9195091,3.1632152 1.9590623,3.0291775 Z"
       style="fill:#f7950d;stroke-width:0.15955"
       id="path1322"
       inkscape:original-d="M 3.09445,5.00579 H 83.6732 c 0.1024,0 0.1549,0.00197 0.1549,0.00447 V 5.3687 h -9e-4 -80.5784 c -0.102,0 -0.15435,-0.00198 -0.15435,-0.00448 z" />
    <path
       d="M 1.3073092,5.4135175 C 32.251236,10.146194 92.495462,49.730679 101.00085,27.747246 c 0.0315,-0.08144 0.0422,-0.12648 0.036,-0.129775 -0.14846,-0.07899 -0.2954,-0.156007 -0.44086,-0.231073 0,0 -3.1e-4,8.22e-4 -3.1e-4,8.22e-4 C 92.220515,49.495995 32.155388,10.504194 1.3941615,5.8479674 1.2807005,5.8307932 1.223663,5.8179399 1.2247755,5.8123968 1.2514387,5.6795383 1.278943,5.5465773 1.3073092,5.4135175 Z"
       style="fill:#f7950d;stroke-width:0.15955"
       id="path1323"
       inkscape:original-d="M 3.05574,7.14697 H 83.7162 c 0.0996,0 0.1507,0.00396 0.1507,0.00895 V 7.51473 H 83.8659 3.2058 c -0.09917,0 -0.15006,-0.00396 -0.15006,-0.00895 z" />
    <path
       d="M 0.84490366,7.7798285 C 30.13424,11.350429 89.698655,47.921591 98.510593,26.499941 c 0.03166,-0.07697 0.04091,-0.119888 0.0327,-0.1234 -0.131283,-0.05613 -0.261184,-0.110398 -0.389725,-0.162833 0,0 -3.23e-4,7.99e-4 -3.23e-4,7.99e-4 C 89.463738,47.714936 30.067622,11.715185 0.94641773,8.2092841 0.84225117,8.1967435 0.78983526,8.1841317 0.79092219,8.1758303 0.80819244,8.043928 0.82617969,7.911926 0.84490366,7.7798285 Z"
       style="fill:#f7950d;stroke-width:0.15955"
       id="path1324"
       inkscape:original-d="M 3.01703,9.28816 H 83.7592 c 0.0967,0 0.1464,0.00594 0.1464,0.01343 V 9.66075 H 83.9046 3.1628 c -0.09633,0 -0.14577,-0.00593 -0.14577,-0.01342 z" />
    <path
       d="M 0.54445448,10.128414 C 28.280696,12.677124 87.209641,46.361886 96.316365,25.64995 c 0.03174,-0.07219 0.03994,-0.112043 0.03039,-0.114905 -0.115638,-0.03465 -0.230015,-0.06755 -0.343152,-0.09874 0,0 -3.01e-4,6.93e-4 -3.01e-4,6.93e-4 -8.991373,20.745892 -67.762657,-12.38775 -95.34543848,-14.883034 -0.0956654,-0.0087 -0.14396571,-0.02141 -0.1431847,-0.03238 0.009319,-0.130961 0.0192385,-0.262018 0.0297767,-0.393168 z"
       style="fill:#f7950d;stroke-width:0.15955"
       id="path1325"
       inkscape:original-d="M 2.97831,11.4294 H 83.8022 c 0.0939,0 0.1421,0.0079 0.1421,0.0178 v 0.3596 h -9e-4 -80.8236 c -0.0935,0 -0.14149,-0.0079 -0.14149,-0.0179 z" />
    <path
       d="M 0.38030097,12.459377 C 26.665212,14.11808 85.002905,45.035226 94.391874,25.172331 c 0.03171,-0.06709 0.03903,-0.103092 0.02858,-0.104591 -0.101356,-0.01453 -0.201566,-0.02744 -0.30065,-0.03874 0,0 -3.1e-4,6.62e-4 -3.1e-4,6.62e-4 -9.280372,19.853317 -67.47054,-10.531586 -93.61660041,-12.147538 -0.0878462,-0.0054 -0.13253099,-0.01866 -0.13224638,-0.03226 0.002723,-0.130071 0.005936,-0.260237 0.009659,-0.390491 z"
       style="fill:#f7950d;stroke-width:0.15955"
       id="path1326"
       inkscape:original-d="m 2.9396,13.5705 h 80.9057 c 0.091,0 0.1377,0.0099 0.1377,0.0224 v 0.3599 h -9e-4 -80.90529 c -0.09067,0 -0.13721,-0.0099 -0.13721,-0.0224 z" />
    <path
       d="m 0.3284024,14.77333 c 24.9352006,0.892033 82.7252996,29.151406 92.3836016,10.268864 0.03156,-0.0617 0.03845,-0.0933 0.02751,-0.09278 -0.0884,0.0042 -0.175759,0.0099 -0.262098,0.01709 0,0 -3.19e-4,6.28e-4 -3.19e-4,6.28e-4 -9.555779,18.831346 -67.208412,-8.91368 -92.01955453,-9.773057 -0.0806755,-0.0028 -0.12216058,-0.01667 -0.12248776,-0.03284 -0.002613,-0.129212 -0.004837,-0.258515 -0.006654,-0.387902 z"
       style="fill:#f7950d;stroke-width:0.15955"
       id="path1327"
       inkscape:original-d="M 2.90089,15.7117 H 83.8883 c 0.0881,0 0.1334,0.0119 0.1334,0.0269 v 0.3602 h -9e-4 -80.98699 c -0.08784,0 -0.13292,-0.0118 -0.13292,-0.0268 z" />
    <path
       d="M 0.36643845,17.070563 C 24.053745,17.31084 81.339781,43.013982 91.253741,25.234449 c 0.03135,-0.05622 0.03799,-0.08278 0.02701,-0.0797 -0.07672,0.02154 -0.152494,0.04446 -0.227347,0.06876 0,0 -3.27e-4,5.89e-4 -3.27e-4,5.89e-4 C 81.236089,42.912543 24.07771,17.70724 0.49962064,17.490231 c -0.0741104,-6.82e-4 -0.11276697,-0.01565 -0.11375543,-0.03437 -0.006776,-0.128346 -0.0132567,-0.256782 -0.0194268,-0.385298 z"
       style="fill:#f7950d;stroke-width:0.15955"
       id="path1328"
       inkscape:original-d="M 2.86218,17.8529 H 83.9313 c 0.0853,0 0.1291,0.0139 0.1291,0.0313 v 0.3607 h -9e-4 -81.06869 c -0.085,0 -0.12863,-0.0139 -0.12863,-0.0314 z" />
    <path
       d="M 0.47376377,19.351522 C 23.015087,19.046449 79.840315,42.286352 89.995619,25.723994 c 0.03106,-0.05066 0.03767,-0.07173 0.02682,-0.06558 -0.06613,0.03747 -0.131407,0.07621 -0.195853,0.116205 0,0 -3.35e-4,5.47e-4 -3.35e-4,5.47e-4 C 79.76291,42.208436 23.055705,19.451076 0.60858269,19.770735 c -0.0681359,9.71e-4 -0.10423819,-0.01508 -0.10587954,-0.03631 -0.00986,-0.12755 -0.0195113,-0.255189 -0.0289394,-0.382901 z"
       style="fill:#f7950d;stroke-width:0.15955"
       id="path1329"
       inkscape:original-d="M 2.82347,19.9941 H 83.9743 c 0.0825,0 0.1248,0.0158 0.1248,0.0358 v 0.361 h -9e-4 -81.15039 c -0.08217,0 -0.12434,-0.0158 -0.12434,-0.0358 z" />
    <path
       d="M 0.63141673,21.616696 C 22.128756,20.864142 78.536154,41.725209 88.917851,26.485665 c 0.03076,-0.04515 0.03725,-0.06018 0.02693,-0.0507 -0.05659,0.052 -0.112411,0.105145 -0.167484,0.159422 0,0 -3.42e-4,5.01e-4 -3.42e-4,5.01e-4 -10.294239,15.074382 -66.59306,-5.31804 -88.01135248,-4.558781 -0.0627014,0.0022 -0.0964997,-0.0152 -0.0987255,-0.0388 -0.0119549,-0.126788 -0.023781,-0.253666 -0.0354633,-0.380609 z"
       style="fill:#f7950d;stroke-width:0.15955"
       id="path1330"
       inkscape:original-d="M 2.78476,22.1353 H 84.0173 c 0.0797,0 0.1205,0.0178 0.1205,0.0403 v 0.3613 h -9e-4 -81.23209 c -0.07933,0 -0.12005,-0.0178 -0.12005,-0.0402 z" />
    <path
       d="M 0.82211946,23.866624 C 21.377565,22.755876 77.409834,41.313891 88.00233,27.494236 c 0.02764,-0.03606 0.03954,-0.05195 0.0273,-0.03535 -0.04802,0.06512 -0.09535,0.131278 -0.142002,0.198441 0,0 -3.49e-4,4.53e-4 -3.49e-4,4.53e-4 -10.509044,13.6204 -66.44201,-4.481405 -86.93371588,-3.370975 -0.0577895,0.0031 -0.0894501,-0.0157 -0.0921796,-0.04186 5.4384e-4,0.0052 -0.0398059,-0.383535 -0.0392621,-0.378322 z"
       style="fill:#f7950d;stroke-width:0.15955"
       id="path1331"
       inkscape:original-d="M 2.74605,24.2765 H 84.0603 c 0.0768,0 0.1162,0.0198 0.1162,0.0447 v 0.3617 h -9e-4 -81.31379 c -0.0765,0 -0.11576,-0.0197 -0.11576,-0.0447 z" />
    <path
       d="m 1.0302778,26.101886 c 19.7157552,-1.388264 75.4154272,14.933861 86.2023862,2.622489 0.0292,-0.03333 0.03709,-0.03743 0.02777,-0.01967 -0.04031,0.07684 -0.07999,0.154582 -0.119074,0.233216 0,0 -3.95e-4,4.46e-4 -3.95e-4,4.46e-4 C 76.433823,41.018286 20.824468,25.141605 1.1570316,26.52346 c -0.053352,0.0037 -0.083044,-0.01684 -0.086121,-0.04532 0.00635,0.05878 -0.046984,-0.435042 -0.040633,-0.376258 z"
       style="fill:#f7950d;stroke-width:0.15955"
       id="path1332"
       inkscape:original-d="M 2.70734,26.4177 H 84.1034 c 0.0739,0 0.1119,0.0217 0.1119,0.0492 V 26.829 H 84.2143 2.81881 c -0.07366,0 -0.11147,-0.0218 -0.11147,-0.0492 z" />
    <path
       d="m 1.2419815,28.323113 c 18.9783065,-1.593751 74.3874095,12.550868 85.3520445,1.827719 0.02861,-0.02798 0.03668,-0.02572 0.02834,-0.0039 -0.03336,0.0871 -0.06615,0.17499 -0.0984,0.263646 0,0 -4.01e-4,3.85e-4 -4.01e-4,3.85e-4 -10.887875,10.461781 -66.215628,-3.246715 -85.1612985,-1.6645 -0.049376,0.0041 -0.077172,-0.01811 -0.080458,-0.04909 -5.7e-4,-0.0054 -0.039263,-0.368838 -0.039832,-0.374212 z"
       style="fill:#f7950d;stroke-width:0.15955"
       id="path1333"
       inkscape:original-d="M 2.66863,28.5589 H 84.1464 c 0.0711,0 0.1076,0.0237 0.1076,0.0537 V 28.975 H 84.253 2.77582 c -0.07084,0 -0.10719,-0.0237 -0.10719,-0.0537 z" />
    <path
       d="m 1.4450038,30.530978 c 18.3432122,-1.735894 73.5036012,10.28092 84.6283792,1.217168 0.02784,-0.02268 0.03629,-0.0143 0.02901,0.01151 -0.02709,0.09596 -0.05367,0.19258 -0.07976,0.289848 0,0 -4.07e-4,3.23e-4 -4.07e-4,3.23e-4 -11.050623,8.774662 -66.138519,-2.813698 -84.4649803,-1.09342 -0.045802,0.0043 -0.07179,-0.01977 -0.075082,-0.05303 -2.292e-4,-0.0023 -0.036932,-0.370084 -0.037161,-0.372399 z"
       style="fill:#f7950d;stroke-width:0.15955"
       id="path1334"
       inkscape:original-d="M 2.62992,30.7001 H 84.1894 c 0.0682,0 0.1033,0.0257 0.1033,0.0581 V 31.121 H 84.2917 2.73282 c -0.068,0 -0.1029,-0.0257 -0.1029,-0.0581 z" />
    <path
       d="m 1.6287926,32.726099 c 17.8105794,-1.823407 72.7638394,8.106632 84.0305654,0.764664 0.02703,-0.01761 0.03587,-0.0033 0.02967,0.0267 -0.0214,0.103374 -0.04234,0.207296 -0.06283,0.31174 0,0 -3.7e-4,2.32e-4 -3.7e-4,2.32e-4 -11.194663,7.027296 -66.084266,-2.480068 -83.8941867,-0.675243 -0.042617,0.0043 -0.066833,-0.02165 -0.069962,-0.05737 -0.010817,-0.123521 -0.02178,-0.247086 -0.032887,-0.370722 z"
       style="fill:#f7950d;stroke-width:0.15955"
       id="path1335"
       inkscape:original-d="M 2.59121,32.8412 H 84.2324 c 0.0654,0 0.099,0.0277 0.099,0.0627 v 0.3632 h -9e-4 -81.64068 c -0.06517,0 -0.09861,-0.0277 -0.09861,-0.0627 z" />
    <path
       d="m 1.7845024,34.909448 c 17.3804396,-1.865058 72.1678526,6.010243 83.5576966,0.443867 0.02613,-0.01277 0.03542,0.0073 0.03041,0.04109 -0.0162,0.109348 -0.03198,0.219123 -0.04734,0.329295 0,0 -3.74e-4,1.72e-4 -3.74e-4,1.72e-4 -11.319526,5.22855 -66.051933,-2.228231 -83.4480866,-0.38357 -0.039774,0.0042 -0.062257,-0.0237 -0.06501,-0.06167 -0.00892,-0.123012 -0.018017,-0.246066 -0.027291,-0.369185 z"
       style="fill:#f7950d;stroke-width:0.15955"
       id="path1336"
       inkscape:original-d="M 2.55249,34.9824 H 84.2754 c 0.0626,0 0.0947,0.0297 0.0947,0.0671 v 0.3636 h -9e-4 -81.72238 c -0.06233,0 -0.09433,-0.0297 -0.09433,-0.0671 z" />
    <path
       d="m 1.9049601,37.081734 c 17.0529179,-1.869626 71.7154669,3.974229 83.2089329,0.228398 0.02517,-0.0082 0.03493,0.01721 0.03117,0.05471 -0.01139,0.113841 -0.02239,0.227985 -0.033,0.342402 0,0 -3.77e-4,1.12e-4 -3.77e-4,1.12e-4 -11.424486,3.387248 -66.040618,-2.040394 -83.1258797,-0.191747 -0.037255,0.004 -0.057996,-0.02577 -0.060199,-0.06618 -0.00668,-0.122519 -0.013565,-0.245078 -0.02065,-0.367694 z"
       style="fill:#f7950d;stroke-width:0.15955"
       id="path1337"
       inkscape:original-d="M 2.51378,37.1236 H 84.3184 c 0.0598,0 0.0904,0.0317 0.0904,0.0716 v 0.3639 h -9e-4 -81.80408 c -0.0595,0 -0.09004,-0.0316 -0.09004,-0.0716 z" />
    <path
       d="m 1.9846676,39.243814 c 16.8280894,-1.845941 71.4064824,1.980892 82.9834144,0.09175 0.02411,-0.0039 0.03442,0.0263 0.03201,0.06726 -0.0069,0.116873 -0.0134,0.233925 -0.01954,0.351125 0,0 -3.79e-4,5e-5 -3.79e-4,5e-5 -11.508898,1.512274 -66.049406,-1.898732 -82.9267516,-0.07306 -0.035012,0.0038 -0.054031,-0.02802 -0.055497,-0.07066 -0.0042,-0.122112 -0.00862,-0.244258 -0.013259,-0.366458 z"
       style="fill:#f7950d;stroke-width:0.15955"
       id="path1338"
       inkscape:original-d="M 2.47507,39.2648 H 84.3614 c 0.0569,0 0.0861,0.0336 0.0861,0.0761 v 0.3642 h -9e-4 -81.88578 c -0.05666,0 -0.08575,-0.0336 -0.08575,-0.076 z" />
    <path
       d="m 2.0198168,41.396594 c 16.7060582,-1.802869 71.2408232,0.01246 82.8803142,0.0073 0.02298,-10e-6 0.03387,0.03463 0.03291,0.07845 -0.0026,0.118504 -0.0048,0.237062 -0.0067,0.355644 0,0 -3.81e-4,-1.3e-5 -3.81e-4,-1.3e-5 -11.075574,-0.370916 -66.573823,-1.732528 -82.8498778,-6.98e-4 -0.033045,0.0035 -0.050321,-0.03032 -0.050902,-0.07539 -0.00157,-0.121724 -0.00337,-0.243478 -0.0054,-0.36528 z"
       style="fill:#f7950d;stroke-width:0.15955"
       id="path1339"
       inkscape:original-d="M 2.43636,41.406 H 84.4045 c 0.054,0 0.0817,0.0356 0.0817,0.0805 v 0.3647 h -9e-4 -81.96748 c -0.05383,0 -0.08146,-0.0356 -0.08146,-0.0806 z" />
    <path
       d="m 2.0082836,43.541021 c 16.4259994,-1.721954 71.4789704,-1.906524 82.8986734,-0.05169 0.02185,0.0035 0.03338,0.042 0.03401,0.08824 0.0016,0.118598 0.0036,0.237124 0.0059,0.355548 0,0 -3.82e-4,-7.6e-5 -3.82e-4,-7.6e-5 -11.382363,-2.257243 -66.354619,-1.658402 -82.8944412,0.05226 -0.031273,0.0032 -0.046846,-0.03262 -0.046413,-0.07993 0.00111,-0.121425 0.002,-0.242875 0.00265,-0.364369 z"
       style="fill:#f7950d;stroke-width:0.15955"
       id="path1340"
       inkscape:original-d="M 2.39765,43.5472 H 84.4475 c 0.0512,0 0.0774,0.0376 0.0774,0.085 v 0.365 H 84.524 2.47483 c -0.051,0 -0.07718,-0.0376 -0.07718,-0.085 z" />
    <path
       d="M 1.9496273,45.678093 C 18.556193,44.000491 73.451733,41.810398 84.987281,45.566069 c 0.02063,0.0067 0.03299,0.04822 0.03537,0.09639 0.0058,0.117212 0.01194,0.234227 0.01845,0.351013 0,0 -4.25e-4,-1.54e-4 -4.25e-4,-1.54e-4 -11.48117,-4.170501 -66.338243,-1.556443 -83.0596142,0.112862 -0.029687,0.003 -0.043577,-0.03481 -0.042039,-0.08446 0.00375,-0.121183 0.00729,-0.242387 0.010599,-0.363629 z"
       style="fill:#f7950d;stroke-width:0.15955"
       id="path1341"
       inkscape:original-d="M 2.35894,45.6884 H 84.4905 c 0.0483,0 0.0732,0.0395 0.0732,0.0895 v 0.3653 H 84.5627 2.43183 c -0.04817,0 -0.07289,-0.0395 -0.07289,-0.0894 z" />
    <path
       d="M 1.8450914,47.808851 C 18.682656,46.174026 73.565471,41.945313 85.141463,47.608186 c 0.01941,0.0095 0.03266,0.05338 0.03699,0.102574 0.01006,0.114405 0.02049,0.228483 0.03129,0.342207 0,0 -4.24e-4,-2.24e-4 -4.24e-4,-2.24e-4 -11.515584,-6.086175 -66.379512,-1.42411 -83.3445733,0.208242 -0.028242,0.0027 -0.040496,-0.03717 -0.037808,-0.08917 0.00626,-0.120968 0.012307,-0.241951 0.018153,-0.362967 z"
       style="fill:#f7950d;stroke-width:0.15955"
       id="path1342"
       inkscape:original-d="M 2.32023,47.8296 H 84.5335 c 0.0455,0 0.0689,0.0415 0.0689,0.0939 v 0.3658 H 84.6014 2.38883 c -0.04533,0 -0.0686,-0.0416 -0.0686,-0.094 z" />
    <path
       d="M 1.6976027,49.934381 C 18.850473,48.328063 73.797378,42.025967 85.371539,49.589729 c 0.01816,0.01187 0.03248,0.05728 0.03901,0.106812 0.0145,0.110039 0.02939,0.219625 0.04468,0.328729 0,0 -4.23e-4,-2.93e-4 -4.23e-4,-2.93e-4 C 73.944386,42.0327 19.002792,48.77899 1.7063495,50.39062 c -0.026934,0.0025 -0.037614,-0.03928 -0.03378,-0.09365 0.00852,-0.120847 0.016869,-0.241704 0.025033,-0.36259 z"
       style="fill:#f7950d;stroke-width:0.15955"
       id="path1343"
       inkscape:original-d="M 2.28152,49.9708 H 84.5765 c 0.0427,0 0.0646,0.0435 0.0646,0.0984 v 0.3661 H 84.6401 2.34583 c -0.0425,0 -0.06431,-0.0435 -0.06431,-0.0984 z" />
    <path
       d="M 1.5117803,52.05572 C 19.074267,50.453505 74.141882,42.036457 85.681209,51.484589 c 0.01688,0.01382 0.0325,0.05983 0.04154,0.108827 0.01923,0.104205 0.03887,0.207828 0.05893,0.310841 0,0 -4.2e-4,-3.62e-4 -4.2e-4,-3.62e-4 -11.4731,-9.878922 -66.546725,-1.004694 -84.2704261,0.612424 -0.025708,0.0023 -0.034914,-0.04145 -0.029999,-0.0982 0.010462,-0.120792 0.020778,-0.241584 0.030944,-0.362403 z"
       style="fill:#f7950d;stroke-width:0.15955"
       id="path1344"
       inkscape:original-d="M 2.24281,52.1119 H 84.6195 c 0.0399,0 0.0603,0.0455 0.0603,0.1029 v 0.3665 H 84.6788 2.30283 c -0.03966,0 -0.06002,-0.0455 -0.06002,-0.1029 z" />
    <path
       d="M 1.2939034,54.174243 C 19.36441,52.542212 74.601103,41.960205 86.075897,53.266863 c 0.01554,0.01531 0.03278,0.06097 0.0447,0.108444 0.02432,0.09683 0.04909,0.192959 0.07432,0.288345 0,0 -3.75e-4,-3.87e-4 -3.75e-4,-3.87e-4 -11.406238,-11.736675 -66.65936,-0.682322 -84.9096785,0.976007 -0.024544,0.0022 -0.032416,-0.04345 -0.026553,-0.102617 -2.252e-4,0.0023 0.035821,-0.364684 0.035596,-0.362412 z"
       style="fill:#f7950d;stroke-width:0.15955"
       id="path1345"
       inkscape:original-d="m 2.2041,54.2531 h 82.4584 c 0.037,0 0.056,0.0475 0.056,0.1074 v 0.3668 H 84.7176 2.25983 C 2.223,54.7273 2.2041,54.6799 2.2041,54.62 Z" />
    <path
       d="M 1.0519569,56.291077 C 19.730869,54.585978 75.181014,41.780349 86.562706,54.910364 c 0.01418,0.01637 0.03334,0.06055 0.04859,0.105446 0.02989,0.08798 0.06027,0.175114 0.09116,0.261384 0,0 -3.72e-4,-4.46e-4 -3.72e-4,-4.46e-4 -11.310998,-13.556133 -66.78727,-0.26056 -85.6653055,1.484069 -0.023397,0.0022 -0.030111,-0.04561 -0.023508,-0.107213 -5.47e-4,0.0051 0.039232,-0.367631 0.038685,-0.362527 z"
       style="fill:#f7950d;stroke-width:0.15955"
       id="path1346"
       inkscape:original-d="M 2.16539,56.3943 H 84.7056 c 0.0341,0 0.0516,0.0495 0.0516,0.1119 v 0.3672 h -9e-4 -82.53946 c -0.034,0 -0.05145,-0.0495 -0.05145,-0.1119 z" />
    <path
       d="M 0.79559552,58.407494 C 20.184345,56.576812 75.889758,41.479997 87.150303,56.388799 c 0.01288,0.01705 0.0343,0.05853 0.05341,0.09969 0.03603,0.0776 0.07261,0.154225 0.109747,0.229855 0,0 -3.67e-4,-5.03e-4 -3.67e-4,-5.03e-4 -11.187537,-15.327878 -66.928641,0.278878 -86.53643801,2.164207 -0.0222472,0.0021 -0.0280503,-0.04753 -0.0210004,-0.111609 0.0119396,-0.108525 0.0279973,-0.254423 0.0399369,-0.362948 z"
       style="fill:#f7950d;stroke-width:0.15955"
       id="path1347"
       inkscape:original-d="M 2.12667,58.5355 H 84.7486 c 0.0313,0 0.0473,0.0514 0.0473,0.1163 v 0.3676 H 84.795 2.17384 c -0.03117,0 -0.04717,-0.0514 -0.04717,-0.1163 z" />
    <path
       d="M 0.53617882,60.524809 C 20.736908,58.50676 76.737985,41.042107 87.849163,57.675943 c 0.01149,0.01721 0.03582,0.05503 0.05935,0.09112 0.04283,0.06567 0.08627,0.130238 0.13033,0.193679 0,0 -3.61e-4,-5.59e-4 -3.61e-4,-5.59e-4 -11.035721,-17.04268 -67.081967,0.954477 -87.52223832,3.044228 -0.0210504,0.0022 -0.0262205,-0.04952 -0.0191065,-0.116118 5.6708e-4,-0.0053 0.0384695,-0.358179 0.0390366,-0.363488 z"
       style="fill:#f7950d;stroke-width:0.15955"
       id="path1348"
       inkscape:original-d="M 2.08796,60.6767 H 84.7916 c 0.0284,0 0.043,0.0534 0.043,0.1208 v 0.3679 h -9e-4 -82.70286 c -0.02833,0 -0.04288,-0.0534 -0.04288,-0.1208 z" />
    <path
       d="M 0.28672936,62.644386 C 21.402022,60.367916 77.738113,40.449608 88.671396,58.745469 c 0.01014,0.01697 0.03791,0.04982 0.06657,0.07951 0.0504,0.05223 0.101492,0.103217 0.153275,0.15295 0,0 -3.55e-4,-6.12e-4 -3.55e-4,-6.12e-4 -10.855213,-18.691286 -67.245955,1.784842 -88.62188992,4.152085 -0.0197895,0.0022 -0.0246706,-0.05151 -0.0179749,-0.120671 0.0117593,-0.121459 0.0236678,-0.242917 0.0357092,-0.364347 z"
       style="fill:#f7950d;stroke-width:0.15955"
       id="path1349"
       inkscape:original-d="M 2.04925,62.8179 H 84.8346 c 0.0256,0 0.0387,0.0554 0.0387,0.1253 v 0.3683 h -9e-4 -82.78456 c -0.0255,0 -0.03859,-0.0554 -0.03859,-0.1253 z" />
    <path
       d="M 0.06196031,64.767633 C 22.194721,62.152395 78.904372,39.685392 89.63079,59.57099 c 0.0089,0.01643 0.0406,0.04283 0.07524,0.06475 0.05885,0.03724 0.118462,0.07311 0.17885,0.107589 0,0 -3.87e-4,-7.36e-4 -3.87e-4,-7.36e-4 -10.645581,-20.2642 -67.419404,2.788542 -89.83442321,5.515676 -0.01841765,0.0022 -0.02343844,-0.05353 -0.01775066,-0.125299 0.0096522,-0.121797 0.01953713,-0.243581 0.02963818,-0.365337 z"
       style="fill:#f7950d;stroke-width:0.15955"
       id="path1350"
       inkscape:original-d="M 2.01054,64.9591 H 84.8776 c 0.0228,0 0.0345,0.0573 0.0345,0.1297 v 0.3687 H 84.9111 2.04484 c -0.02266,0 -0.0343,-0.0574 -0.0343,-0.1298 z" />
    <path
       d="M -0.12173147,66.896006 C 23.131642,63.852332 80.252748,38.732315 90.742813,60.126056 c 0.0076,0.01542 0.04406,0.03404 0.0856,0.04663 0.06825,0.02069 0.137339,0.03988 0.207298,0.05755 0,0 -3.78e-4,-7.89e-4 -3.78e-4,-7.89e-4 -10.4063,-21.752122 -67.601195,3.98434 -91.1590076,7.163159 -0.016919,0.0023 -0.0225738,-0.0555 -0.0185985,-0.129943 0.006528,-0.122245 0.0133814,-0.244469 0.0205426,-0.36666 z"
       style="fill:#f7950d;stroke-width:0.15955"
       id="path1351"
       inkscape:original-d="M 1.97183,67.1003 H 84.9206 c 0.0199,0 0.0302,0.0593 0.0302,0.1342 v 0.369 H 84.9498 2.00184 c -0.01983,0 -0.03001,-0.0593 -0.03001,-0.1342 z" />
    <path
       d="M -0.24626532,69.031004 C 24.23109,65.459874 81.801097,37.573134 92.024648,60.384239 c 0.0063,0.01403 0.04835,0.02332 0.09776,0.02495 0.07872,0.0026 0.158394,0.0036 0.239025,0.0029 0,0 -3.67e-4,-8.38e-4 -3.67e-4,-8.38e-4 -10.136808,-23.145645 -67.790243,5.391043 -92.594763,9.122752 -0.0152543,0.0023 -0.0221137,-0.05767 -0.020678,-0.134845 0.002283,-0.12274 0.004993,-0.245451 0.008111,-0.368125 z"
       style="fill:#f7950d;stroke-width:0.15955"
       id="path1352"
       inkscape:original-d="M 1.93312,69.2415 H 84.9637 c 0.017,0 0.0258,0.0613 0.0258,0.1386 v 0.3694 H 84.9885 1.95884 c -0.017,0 -0.02572,-0.0613 -0.02572,-0.1387 z" />
    <path
       d="M -0.2918786,71.174074 C 25.512864,66.967129 83.568489,36.190838 93.494973,60.31882 c 0.0051,0.01239 0.05366,0.01082 0.112231,-2.42e-4 0.09037,-0.01707 0.181794,-0.0359 0.274285,-0.05652 0,0 -3.56e-4,-8.85e-4 -3.56e-4,-8.85e-4 -9.836493,-24.435382 -67.985481,7.027607 -94.14086388,11.422898 -0.0133921,0.0023 -0.0221329,-0.05998 -0.024195,-0.139956 -0.003181,-0.123384 -0.005826,-0.246733 -0.007953,-0.370038 z"
       style="fill:#f7950d;stroke-width:0.15955"
       id="path1353"
       inkscape:original-d="M 1.89441,71.3826 H 85.0067 c 0.0142,0 0.0215,0.0633 0.0215,0.1432 v 0.3698 H 85.0272 1.91585 c -0.01417,0 -0.02144,-0.0633 -0.02144,-0.1432 z" />
    <path
       d="M -0.23712502,73.327008 C 26.9987,68.36641 85.576351,34.568007 95.174466,59.903235 c 0.004,0.01043 0.06008,-0.0036 0.129038,-0.02917 0.103262,-0.03829 0.207687,-0.07849 0.313297,-0.120603 0,-10e-7 -3.43e-4,-9.27e-4 -3.43e-4,-9.27e-4 -9.504769,-25.611756 -68.185883,8.912848 -95.79630084,14.091815 -0.0113011,0.0021 -0.0226764,-0.06248 -0.0293246,-0.145235 -0.009968,-0.12408 -0.0192805,-0.248117 -0.0279576,-0.372105 z"
       style="fill:#f7950d;stroke-width:0.15955"
       id="path1354"
       inkscape:original-d="m 1.8557,73.5238 h 83.194 c 0.0114,0 0.0172,0.0653 0.0172,0.1477 v 0.3701 H 85.0659 1.87285 c -0.01134,0 -0.01715,-0.0653 -0.01715,-0.1476 z" />
    <path
       d="M -0.05887027,75.491344 C 28.711795,69.649841 87.847439,32.687435 97.085244,59.110787 c 0.0028,0.0081 0.06772,-0.01996 0.14842,-0.06191 0.117547,-0.0611 0.236381,-0.124241 0.356523,-0.189442 0,0 -2.97e-4,-8.67e-4 -2.97e-4,-8.67e-4 C 88.449014,32.193065 29.199488,69.924331 0.02962281,76.01662 c -0.0089395,0.0019 -0.02380926,-0.06513 -0.03630244,-0.150943 -0.01817311,-0.124829 -0.03556268,-0.249608 -0.05219064,-0.374333 z"
       style="fill:#f7950d;stroke-width:0.15955"
       id="path1355"
       inkscape:original-d="M 1.81699,75.665 H 85.0927 c 0.0085,0 0.0129,0.0673 0.0129,0.1521 v 0.3705 h -9e-4 -83.27485 c -0.0085,0 -0.01286,-0.0672 -0.01286,-0.1521 z" />
    <path
       d="M 0.26770119,77.668768 C 30.677074,70.809624 90.406273,30.531833 99.251171,57.91472 c 0.0018,0.0056 0.0766,-0.0382 0.170837,-0.09864 0.13327,-0.08548 0.267957,-0.17313 0.404087,-0.262979 0,0 -2.84e-4,-8.95e-4 -2.84e-4,-8.95e-4 -8.744387,-27.586733 -68.598014,13.505647 -99.43179666,20.650435 -0.006297,0.0015 -0.0256293,-0.06818 -0.0453342,-0.156946 -0.0279058,-0.125702 -0.054891,-0.251346 -0.080979,-0.376928 z"
       style="fill:#f7950d;stroke-width:0.15955"
       id="path1356"
       inkscape:original-d="M 1.77828,77.8062 H 85.1357 c 0.0057,0 0.0086,0.0692 0.0086,0.1566 v 0.3708 h -9e-4 -83.35655 c -0.00567,0 -0.00857,-0.0692 -0.00857,-0.1565 z" />
    <path
       d="M 0.7690771,79.86101 C 32.921123,71.837988 93.279062,28.083878 101.69779,56.288219 c 8.8e-4,0.0029 0.0871,-0.05846 0.1965,-0.139453 0.1506,-0.111467 0.30276,-0.225244 0.4565,-0.341356 0,0 -2.7e-4,-9.21e-4 -2.7e-4,-9.21e-4 C 94.036,27.440425 33.542821,72.058216 0.94041155,80.404329 c -0.00332,8.5e-4 -0.0282237,-0.07161 -0.0567454,-0.163623 -0.0392541,-0.126631 -0.0774423,-0.253197 -0.1145891,-0.379696 z"
       style="fill:#f7950d;stroke-width:0.15955"
       id="path1357"
       inkscape:original-d="M 1.73956,79.9474 H 85.1787 c 0.0029,0 0.0043,0.0712 0.0043,0.1611 v 0.3712 h -9e-4 -83.43825 c -0.00283,0 -0.00429,-0.0712 -0.00429,-0.1611 z" />
    <path
       d="M 1.473463,82.069843 C 35.47225,72.72714 96.493702,25.326235 104.45231,54.204406 c 0.0749,-0.06096 0.15006,-0.122409 0.2256,-0.184341 0.1696,-0.139058 0.34092,-0.280563 0.51397,-0.424542 0,0 -2.6e-4,-9.39e-4 -2.6e-4,-9.39e-4 C 97.340971,24.600753 36.173201,72.917576 1.6975065,82.623339 1.6737087,82.566441 1.6501557,82.509557 1.626845,82.452688 1.5745053,82.325 1.5233866,82.197384 1.473463,82.069843 Z"
       style="fill:#f7950d;stroke-width:0.15955"
       id="path1358"
       inkscape:original-d="M 1.70085,82.0886 H 85.2217 v 0.1655 0.3716 h -9e-4 -83.51995 v -0.1655 z" />
  </g>
</svg>
