<?xml version="1.0" encoding="UTF-8"?>
<svg version="1.1" xmlns="http://www.w3.org/2000/svg" width="256" height="256">
<path d="M0 0 C1.01557952 -0.00551503 1.01557952 -0.00551503 2.0516758 -0.01114148 C4.31367382 -0.02212815 6.57562583 -0.02601364 8.83764648 -0.02983093 C10.462592 -0.03609955 12.08753609 -0.0427467 13.71247864 -0.04974365 C19.04455576 -0.0707453 24.37663303 -0.08114484 29.70874023 -0.09111023 C31.54876724 -0.09515974 33.3887941 -0.09927672 35.2288208 -0.10346031 C43.87805657 -0.12250623 52.52728386 -0.13673652 61.17653656 -0.14507228 C71.13724617 -0.15483205 81.09773281 -0.18112113 91.05836391 -0.22157317 C98.7715571 -0.25181493 106.48468668 -0.26654892 114.19793797 -0.26985329 C118.79767832 -0.27219526 123.39718032 -0.28104348 127.99685669 -0.30631447 C132.3307751 -0.32974066 136.6643007 -0.33377055 140.99826622 -0.32355309 C142.57957968 -0.32306107 144.16091344 -0.32928156 145.74216652 -0.34310913 C158.73018475 -0.45023109 171.31939894 0.8012177 181.14624023 10.14717102 C181.83459961 10.79556946 182.52295898 11.4439679 183.23217773 12.11201477 C193.50385285 22.67007488 194.8870708 34.17449528 194.77734375 48.21577454 C194.78249247 49.9041163 194.78978089 51.59245268 194.79902649 53.28077698 C194.81742612 57.83251814 194.8046754 62.38366804 194.78493619 66.93538404 C194.76845592 71.71748783 194.77737543 76.49955692 194.78245544 81.28167725 C194.78696553 89.30847024 194.77117293 97.33502938 194.74316406 105.36177063 C194.7111062 114.61980341 194.71113573 123.87741487 194.72837883 133.1354776 C194.74428369 142.07147054 194.73748564 151.00731014 194.72044182 159.94329643 C194.71359915 163.73291585 194.71457497 167.52241133 194.72198677 171.31202888 C194.72969045 175.7798904 194.71739136 180.24727669 194.69013786 184.71505737 C194.68329594 186.34717843 194.68311062 187.97934422 194.69035339 189.61146355 C194.74348298 203.15168683 192.81880731 214.01491758 183.14624023 224.14717102 C172.2721094 234.52795754 160.56721431 235.74434372 146.20703125 235.68061829 C144.52045949 235.68768847 142.83389407 235.69643807 141.14733887 235.70672607 C136.59557158 235.72910647 132.04415387 235.7263071 127.49235272 235.7174046 C123.68041468 235.71227142 119.86854098 235.71960609 116.05660957 235.72687668 C107.05835234 235.7438396 98.06026485 235.74034624 89.06201172 235.72358704 C79.80454383 235.70666711 70.54754755 235.72250668 61.29013115 235.75480992 C53.31692872 235.78156941 45.34387252 235.78876475 37.37062973 235.78029484 C32.61953918 235.77538441 27.86873222 235.77747868 23.11767769 235.79808235 C18.64813349 235.81653991 14.17926368 235.81035886 9.70975494 235.78588295 C8.0780438 235.78090693 6.44628035 235.78428056 4.81461143 235.7970314 C-8.91771374 235.89578147 -19.53542847 233.36822308 -29.66235352 223.53388977 C-40.09582526 212.17051859 -41.30456821 200.7025535 -41.24194336 185.74873352 C-41.2460151 184.10832877 -41.25136034 182.46792678 -41.25787354 180.82752991 C-41.27148137 176.39777067 -41.26627564 171.96822243 -41.25673628 167.53845978 C-41.24910567 162.88800516 -41.2561947 158.23756781 -41.26089478 153.58711243 C-41.26634246 145.77962523 -41.25918669 137.97222336 -41.24487305 130.16474915 C-41.22854844 121.15673548 -41.23383765 112.14892556 -41.25035226 103.14091682 C-41.26399533 95.38688992 -41.26587303 87.63292412 -41.25803626 79.87888908 C-41.25337522 75.25647012 -41.25269149 70.63414672 -41.26264572 66.01173401 C-41.27135427 61.66464518 -41.26522295 57.31781736 -41.24796295 52.97075653 C-41.24401878 51.38174623 -41.24509639 49.79271372 -41.25175095 48.20371246 C-41.30466021 34.27892449 -39.44466599 22.59630835 -29.84985352 11.91670227 C-21.31114015 3.77513837 -11.69729787 0.0413118 0 0 Z M-22.85375977 23.14717102 C-27.29365745 29.68552782 -28.97441783 34.86364618 -28.99420166 42.7557373 C-28.99717278 43.41842395 -29.0001439 44.08111059 -29.00320506 44.76387864 C-29.01187216 46.98304558 -29.01339863 49.20215843 -29.01489258 51.42134094 C-29.01952223 53.01322037 -29.02454709 54.60509868 -29.02993774 56.19697571 C-29.04305122 60.52158497 -29.04950487 64.84617871 -29.0539484 69.17080474 C-29.05688137 71.87450541 -29.06098664 74.57820186 -29.06545258 77.28190041 C-29.07912593 85.74639211 -29.08879287 94.21087414 -29.09265447 102.67537612 C-29.09713228 112.43630451 -29.11466797 122.19709267 -29.14365506 131.95797843 C-29.16529816 139.50888326 -29.17536018 147.05974871 -29.17669559 154.61068422 C-29.17774191 159.11748639 -29.18361263 163.6241567 -29.2015152 168.13092613 C-29.21804095 172.37366731 -29.22012962 176.61617816 -29.21137619 180.85894012 C-29.21060817 182.41128724 -29.21491739 183.96364697 -29.22483444 185.5159626 C-29.30039216 198.08598137 -28.28694967 206.58358438 -19.39672852 215.90888977 C-12.26904471 222.18256538 -4.70602112 224.25926602 4.62036133 224.29434204 C5.92946976 224.30149734 7.23857819 224.30865265 8.58735657 224.31602478 C10.03146338 224.31886477 11.47557046 224.32157653 12.91967773 224.32417297 C14.44610243 224.33044217 15.97252561 224.33708937 17.49894714 224.34408569 C22.50636746 224.36508124 27.51378791 224.3754866 32.52124023 224.38545227 C34.24982723 224.38950207 35.97841406 224.39361906 37.70700073 224.39780235 C45.83297907 224.41684727 53.95894838 224.43107753 62.08494473 224.43941432 C71.44005544 224.4491724 80.79492865 224.47545739 90.14995575 224.51591522 C97.39606161 224.54616801 104.64209977 224.56089201 111.88826752 224.56419533 C116.20855769 224.56653614 120.52859396 224.57536875 124.84881592 224.60065651 C128.92009345 224.62410213 132.99095287 224.62810504 137.06228065 224.61789513 C138.54684155 224.61740357 140.03142419 224.62361026 141.51592064 224.63745117 C152.90609319 224.73760425 163.93309105 223.85617612 173.14624023 216.52217102 C179.84615276 209.92078662 182.88999915 202.31258312 183.277668 192.98488998 C183.28064266 191.84563694 183.28361732 190.7063839 183.28668213 189.53260803 C183.29239227 188.21778946 183.29810242 186.90297089 183.3039856 185.54830933 C183.30523074 184.10307322 183.30635588 182.657837 183.30737305 181.21260071 C183.31200555 179.68116131 183.31703079 178.14972306 183.32241821 176.61828613 C183.33550226 172.46727635 183.34197931 168.31628271 183.34642887 164.16525555 C183.34936596 161.56840742 183.35347195 158.97156364 183.35793304 156.37471771 C183.37159723 148.2396693 183.38126926 140.10463091 183.38513494 131.96957183 C183.38961368 122.5975045 183.40715756 113.22558316 183.43613553 103.85356021 C183.45779097 96.59643977 183.46784127 89.3393603 183.46917605 82.08220792 C183.47022128 77.75369471 183.47606882 73.42531893 183.49399567 69.0968399 C183.51054341 65.02232532 183.51259957 60.94805051 183.50385666 56.87351418 C183.50308987 55.38447487 183.50738141 53.89542231 183.51731491 52.40641594 C183.592149 40.48253188 182.78822349 30.10989391 174.20483398 21.11201477 C164.63224559 11.93897789 155.0762472 11.70165351 142.3203125 11.74311829 C140.7293144 11.73740782 139.13832039 11.73044095 137.54733276 11.72232056 C133.24768503 11.70444909 128.94824205 11.7055461 124.64856839 11.71126294 C121.05028928 11.7143634 117.45204901 11.70825286 113.85377544 11.7022242 C105.36097988 11.68820043 96.86828497 11.68972244 88.37548828 11.7011261 C79.63272269 11.71260645 70.8902639 11.69852819 62.14753872 11.67172962 C54.62282522 11.64953365 47.09820775 11.64294398 39.57346386 11.64880604 C35.08736407 11.65216735 30.60146092 11.64981559 26.11538887 11.63255501 C21.89547317 11.61702551 17.67601012 11.62110746 13.45611191 11.63986015 C11.91386307 11.64352943 10.37158024 11.64048636 8.82936287 11.62997437 C-3.82781015 11.5503347 -14.14557444 13.23919128 -22.85375977 23.14717102 Z " fill="#F69D21" transform="translate(50.853759765625,9.852828979492188)"/>
<path d="M0 0 C53.79 0 107.58 0 163 0 C163 3.3 163 6.6 163 10 C109.21 10 55.42 10 0 10 C0 6.7 0 3.4 0 0 Z " fill="#DFDEDE" transform="translate(46,169)"/>
<path d="M0 0 C0.91349685 0.00092179 1.82699369 0.00184359 2.76817226 0.00279331 C3.81290203 0.00141865 4.8576318 0.00004398 5.93402004 -0.00137234 C7.08991634 0.00222294 8.24581264 0.00581821 9.43673611 0.00952244 C10.64632488 0.00937641 11.85591366 0.00923038 13.10215664 0.00907993 C16.42846172 0.0096589 19.75470541 0.0146881 23.08099961 0.02165389 C26.55369751 0.02788805 30.02639615 0.02849128 33.49909878 0.0296793 C40.07936014 0.03279243 46.65960497 0.04100557 53.23985904 0.05102879 C60.72945933 0.06219049 68.21906039 0.06770052 75.70866692 0.07272422 C91.11925387 0.0831882 106.52982327 0.10098777 121.94039822 0.12304783 C121.94039822 3.75304783 121.94039822 7.38304783 121.94039822 11.12304783 C105.79007848 11.14616682 89.63976553 11.16402705 73.48943329 11.17486 C65.99106757 11.18002294 58.4927123 11.18706559 50.99435329 11.19848728 C44.46109318 11.20843419 37.92784063 11.21490127 31.39457315 11.21713632 C27.93318015 11.21844342 24.47180879 11.22152919 21.01042271 11.22877789 C17.15252295 11.2367919 13.29464465 11.23703896 9.43673611 11.23657322 C8.28083981 11.2401685 7.1249435 11.24376377 5.93402004 11.24746799 C4.88929028 11.24609333 3.84456051 11.24471867 2.76817226 11.24330235 C1.39792699 11.24468503 1.39792699 11.24468503 0 11.24609566 C-2.05960178 11.12304783 -2.05960178 11.12304783 -3.05960178 10.12304783 C-3.15750748 8.62566659 -3.18935043 7.12361891 -3.18460178 5.62304783 C-3.18717991 4.80836033 -3.18975803 3.99367283 -3.19241428 3.15429783 C-3.01128889 0.3841447 -2.77194156 0.1656055 0 0 Z " fill="#DFDEDE" transform="translate(68.05960178375244,138.87695217132568)"/>
<path d="M0 0 C28.05 0 56.1 0 85 0 C85 3.3 85 6.6 85 10 C56.95 10 28.9 10 0 10 C0 6.7 0 3.4 0 0 Z " fill="#DFDEDE" transform="translate(85,110)"/>
<path d="M0 0 C5.53588533 -0.02464775 11.071739 -0.04283496 16.60766602 -0.05493164 C18.4924373 -0.05997244 20.37720465 -0.06680498 22.26196289 -0.07543945 C24.96501636 -0.08751617 27.66801831 -0.09323068 30.37109375 -0.09765625 C31.21900986 -0.10281754 32.06692596 -0.10797882 32.9405365 -0.11329651 C34.96071068 -0.11349195 36.98077934 -0.06206211 39 0 C40 1 40 1 40.1328125 3.03125 C40.13023437 3.8459375 40.12765625 4.660625 40.125 5.5 C40.12886719 6.72203125 40.12886719 6.72203125 40.1328125 7.96875 C40 10 40 10 39 11 C36.1156618 11.08865208 33.25537842 11.11521296 30.37109375 11.09765625 C29.07474754 11.09553383 29.07474754 11.09553383 27.75221252 11.09336853 C24.98060708 11.08775239 22.2090812 11.07519719 19.4375 11.0625 C17.5631522 11.05748708 15.68880315 11.05292381 13.81445312 11.04882812 C9.20960456 11.03777772 4.60481579 11.0205023 0 11 C0 7.37 0 3.74 0 0 Z " fill="#DFDEDE" transform="translate(108,80)"/>
</svg>
